<svg width="1157" height="217" viewBox="0 0 1157 217" fill="none" xmlns="http://www.w3.org/2000/svg">
<path d="M83.1004 39.0016L47.1004 126.302H117L83.1004 39.0016ZM87.9004 0.00155735H98.4004L184.5 212.102H150L121.2 137.702H42.6004L12.3004 212.102H0.000391148L87.9004 0.00155735ZM239.454 201.302H353.454V212.102H201.354V203.702L312.654 13.5015H204.954V2.40154H350.454V10.8016L239.454 201.302ZM397.172 130.502V2.40154H430.772V131.702C430.772 179.402 455.072 201.002 492.272 201.002C510.572 201.002 525.272 195.302 536.972 184.202C548.372 172.802 554.072 155.402 554.072 131.702V2.40154H565.472V130.502C565.472 157.802 557.972 179.402 542.972 195.302C529.772 209.402 509.372 216.302 481.772 216.302C453.872 216.302 433.172 209.402 419.672 195.302C404.672 179.402 397.172 157.802 397.172 130.502ZM677.107 13.2015H659.107V103.502H677.107C706.807 103.502 720.307 82.8016 720.307 56.1016C720.307 29.7016 705.607 13.2015 677.107 13.2015ZM625.207 212.102V2.40154H684.607C728.107 2.70156 754.807 22.5016 754.807 57.6015C754.807 70.5016 750.307 81.9016 741.607 91.2016C732.907 100.502 722.407 106.502 710.107 108.602C715.807 110.702 721.507 114.602 727.807 120.902C734.107 126.902 739.207 132.902 743.107 138.602C747.007 144.302 752.107 151.502 757.807 160.802L789.607 212.102H751.807L725.407 168.902C711.907 147.002 701.407 132.302 694.507 125.102C687.607 117.902 679.507 114.302 669.607 114.302H659.107V212.102H625.207ZM825.891 212.102V2.40154H945.291V13.2015H859.491V99.3016H940.791V110.402H859.491V201.302H947.991V212.102H825.891ZM1054.88 39.0016L1018.88 126.302H1088.78L1054.88 39.0016ZM1059.68 0.00155735H1070.18L1156.28 212.102H1121.78L1092.98 137.702H1014.38L984.078 212.102H971.778L1059.68 0.00155735Z" fill="#CAA368"/>
</svg>
