<svg width="309" height="454" viewBox="0 0 309 454" fill="none" xmlns="http://www.w3.org/2000/svg">
<path fill-rule="evenodd" clip-rule="evenodd" d="M150.476 0.0999357C164.372 -1.56386 178.495 17.9434 188.923 29.0911L233.481 77.4095L275.151 122.64C282.47 130.604 303.835 152.158 305.883 162.017C310.02 181.947 308.27 218.663 308.01 239.954C302.535 236.661 295.332 234.244 289.458 231.992L289.342 170.977C274.136 149.123 245.409 122.395 227.603 102.88C203.856 76.8568 178.975 48.1548 154.169 24.1917C150.766 26.8962 146.115 31.8543 143.051 35.2249C104.751 77.3641 65.766 118.441 27.5523 160.701C24.4234 164.161 21.6745 167.792 19.314 172.191C18.1045 208.182 18.9646 252.972 18.9712 289.505C18.9797 334.453 18.1404 383.998 19.2085 428.611C28.3178 429.039 37.2904 428.747 46.3941 428.535C49.0006 421.366 51.1184 414.197 53.4195 406.864C77.7018 329.476 100.614 251.378 125.085 174.093C129.137 161.293 134.117 144.965 144.802 139.954C158.373 133.592 170.966 140.484 177.66 156.968C182.442 168.558 185.978 181.311 189.716 193.602C195.555 212.794 201.908 232.124 207.139 251.596C226.923 247.994 242.871 245.387 262.95 248.788C273.99 250.807 298.008 255.151 306.036 265.704C309.647 279.846 309.61 426.939 305.801 439.592C304.392 444.276 300.177 448.531 296.682 450.306C288.416 454.503 263.243 454.485 254.886 449.675C250.219 446.989 247.586 442.064 245.081 436.454C238.205 421.062 233.689 402.333 228.599 385.751L202.465 301.044C208.712 298.614 214.085 297.642 220.49 296.294C230.796 322.586 240.257 361.881 249.732 389.539C254.297 402.863 257.045 415.564 263.093 428.671C271.89 429.016 280.483 428.697 289.268 428.436C290.086 380.326 289.421 329.226 289.34 280.918C288.653 280.502 287.792 279.975 287.062 279.668C218.778 250.921 139.635 295.482 95.5503 365.186C88.331 376.602 83.8078 387.381 78.0591 399.284C71.0633 413.769 64.6567 443.739 52.7212 450.104C41.9772 454.553 22.5301 454.456 12.0952 450.377C3.74681 447.115 0.0402799 433.375 0.0054 423.314C-0.0351328 411.495 0.165691 398.975 0.169463 386.893L0.114775 305.945C0.0761239 262.209 -0.167234 218.431 0.273955 174.706C0.344809 167.745 4.2099 155.626 8.29544 150.935C25.2246 131.494 42.8519 112.956 60.1421 94.0208L109.825 39.9261C120.404 28.4015 138.273 6.76633 150.476 0.0999357ZM152.732 160.941C138.293 178.08 114.848 281.338 103.224 309.543C101.963 312.605 98.9653 323.866 98.065 327.535C105.61 318.584 111.584 311.696 119.703 303.477C148.287 276.201 156.505 272.691 189.144 256.842C184.199 242.287 164.507 166.181 156.459 162.165C155.384 161.63 154.261 161.334 153.135 161.048L152.732 160.941Z" fill="#EFAB53"/>
<path fill-rule="evenodd" clip-rule="evenodd" d="M150.476 0.0999357C164.372 -1.56386 178.495 17.9434 188.923 29.0911L233.481 77.4095L275.151 122.64C282.47 130.604 303.835 152.158 305.883 162.017C310.02 181.947 308.27 218.663 308.01 239.954C302.535 236.661 295.332 234.244 289.458 231.992L289.342 170.977C274.136 149.123 245.409 122.395 227.603 102.88C203.856 76.8568 178.975 48.1548 154.169 24.1917C150.766 26.8962 146.115 31.8543 143.051 35.2249C104.751 77.3641 65.766 118.441 27.5523 160.701C24.4234 164.161 21.6745 167.792 19.314 172.191C18.1045 208.182 18.9646 252.972 18.9712 289.505C18.9797 334.453 18.1404 383.998 19.2085 428.611C28.3178 429.039 37.2904 428.747 46.3941 428.535C49.0006 421.366 51.1184 414.197 53.4195 406.864C77.7018 329.476 100.614 251.378 125.085 174.093C129.137 161.293 134.117 144.965 144.802 139.954C158.373 133.592 170.966 140.484 177.66 156.968C182.442 168.558 185.978 181.311 189.716 193.602C195.555 212.794 201.908 232.124 207.139 251.596C226.923 247.994 242.871 245.387 262.95 248.788C273.99 250.807 298.008 255.151 306.036 265.704C309.647 279.846 309.61 426.939 305.801 439.592C304.392 444.276 300.177 448.531 296.682 450.306C288.416 454.503 263.243 454.485 254.886 449.675C250.219 446.989 247.586 442.064 245.081 436.454C238.205 421.062 233.689 402.333 228.599 385.751L202.465 301.044C208.712 298.614 214.085 297.642 220.49 296.294C230.796 322.586 240.257 361.881 249.732 389.539C254.297 402.863 257.045 415.564 263.093 428.671C271.89 429.016 280.483 428.697 289.268 428.436C290.086 380.326 289.421 329.226 289.34 280.918C288.653 280.502 287.792 279.975 287.062 279.668C218.778 250.921 139.635 295.482 95.5503 365.186C88.331 376.602 83.8078 387.381 78.0591 399.284C71.0633 413.769 64.6567 443.739 52.7212 450.104C41.9772 454.553 22.5301 454.456 12.0952 450.377C3.74681 447.115 0.0402799 433.375 0.0054 423.314C-0.0351328 411.495 0.165691 398.975 0.169463 386.893L0.114775 305.945C0.0761239 262.209 -0.167234 218.431 0.273955 174.706C0.344809 167.745 4.2099 155.626 8.29544 150.935C25.2246 131.494 42.8519 112.956 60.1421 94.0208L109.825 39.9261C120.404 28.4015 138.273 6.76633 150.476 0.0999357ZM152.732 160.941C138.293 178.08 114.848 281.338 103.224 309.543C101.963 312.605 98.9653 323.866 98.065 327.535C105.61 318.584 111.584 311.696 119.703 303.477C148.287 276.201 156.505 272.691 189.144 256.842C184.199 242.287 164.507 166.181 156.459 162.165C155.384 161.63 154.261 161.334 153.135 161.048L152.732 160.941Z" fill="url(#paint0_linear_2293_159)" fill-opacity="0.85"/>
<defs>
<linearGradient id="paint0_linear_2293_159" x1="297.295" y1="65.6675" x2="-77.4451" y2="354.564" gradientUnits="userSpaceOnUse">
<stop stop-color="#F7D2AB"/>
<stop offset="0.5" stop-color="#E0BA87"/>
<stop offset="1" stop-color="#A98D62"/>
</linearGradient>
</defs>
</svg>
