<svg width="1170" height="889" viewBox="0 0 1170 889" fill="none" xmlns="http://www.w3.org/2000/svg">
<g filter="url(#filter0_din_2293_157)">
<path d="M89.9344 608.337L53.9344 695.637H123.834L89.9344 608.337ZM94.7344 569.337H105.234L191.334 781.438H156.834L128.034 707.037H49.4344L19.1344 781.438H6.83438L94.7344 569.337ZM246.288 770.637H360.288V781.438H208.188V773.037L319.488 582.837H211.788V571.737H357.288V580.137L246.288 770.637ZM404.006 699.837V571.737H437.606V701.037C437.606 748.737 461.906 770.337 499.106 770.337C517.406 770.337 532.106 764.637 543.806 753.537C555.206 742.137 560.906 724.737 560.906 701.037V571.737H572.306V699.837C572.306 727.137 564.806 748.737 549.806 764.637C536.606 778.737 516.206 785.638 488.606 785.638C460.706 785.638 440.006 778.737 426.506 764.637C411.506 748.737 404.006 727.137 404.006 699.837ZM683.941 582.537H665.941V672.837H683.941C713.641 672.837 727.141 652.137 727.141 625.437C727.141 599.037 712.441 582.537 683.941 582.537ZM632.041 781.438V571.737H691.441C734.941 572.037 761.641 591.837 761.641 626.937C761.641 639.837 757.141 651.237 748.441 660.537C739.741 669.837 729.241 675.837 716.941 677.937C722.641 680.037 728.341 683.937 734.641 690.237C740.941 696.237 746.041 702.238 749.941 707.937C753.841 713.637 758.941 720.837 764.641 730.137L796.441 781.438H758.641L732.241 738.237C718.741 716.337 708.241 701.637 701.341 694.437C694.441 687.237 686.341 683.637 676.441 683.637H665.941V781.438H632.041ZM832.725 781.438V571.737H952.125V582.537H866.325V668.637H947.625V679.737H866.325V770.637H954.825V781.438H832.725ZM1061.71 608.337L1025.71 695.637H1095.61L1061.71 608.337ZM1066.51 569.337H1077.01L1163.11 781.438H1128.61L1099.81 707.037H1021.21L990.912 781.438H978.612L1066.51 569.337Z" fill="#CAA368"/>
<path fill-rule="evenodd" clip-rule="evenodd" d="M581.494 0.0999357C595.389 -1.56386 609.513 17.9434 619.941 29.0911L664.499 77.4095L706.168 122.64C713.488 130.604 734.853 152.158 736.901 162.017C741.038 181.947 739.288 218.663 739.028 239.954C733.553 236.661 726.349 234.244 720.475 231.992L720.36 170.977C705.154 149.123 676.427 122.395 658.621 102.88C634.874 76.8568 609.993 48.1548 585.187 24.1917C581.784 26.8962 577.133 31.8543 574.069 35.2249C535.768 77.3641 496.784 118.441 458.57 160.701C455.441 164.161 452.692 167.792 450.332 172.191C449.122 208.182 449.982 252.972 449.989 289.505C449.997 334.453 449.158 383.998 450.226 428.611C459.335 429.039 468.308 428.747 477.412 428.535C480.018 421.366 482.136 414.197 484.437 406.864C508.719 329.476 531.631 251.378 556.102 174.093C560.155 161.293 565.134 144.965 575.82 139.954C589.39 133.592 601.984 140.484 608.677 156.968C613.46 168.558 616.995 181.311 620.734 193.602C626.572 212.794 632.926 232.124 638.157 251.596C657.94 247.994 673.889 245.387 693.967 248.788C705.007 250.807 729.026 255.151 737.053 265.704C740.665 279.846 740.627 426.939 736.819 439.592C735.41 444.276 731.194 448.531 727.7 450.306C719.433 454.503 694.26 454.485 685.904 449.675C681.236 446.989 678.604 442.064 676.098 436.454C669.223 421.062 664.706 402.333 659.617 385.751L633.483 301.044C639.729 298.614 645.103 297.642 651.507 296.294C661.814 322.586 671.274 361.881 680.75 389.539C685.314 402.863 688.062 415.564 694.111 428.671C702.907 429.016 711.501 428.697 720.286 428.436C721.104 380.326 720.439 329.226 720.358 280.918C719.671 280.502 718.809 279.975 718.08 279.668C649.795 250.921 570.653 295.482 526.568 365.186C519.349 376.602 514.825 387.381 509.077 399.284C502.081 413.769 495.674 443.739 483.739 450.104C472.995 454.553 453.548 454.456 443.113 450.377C434.764 447.115 431.058 433.375 431.023 423.314C430.982 411.495 431.183 398.975 431.187 386.893L431.132 305.945C431.094 262.209 430.85 218.431 431.292 174.706C431.362 167.745 435.227 155.626 439.313 150.935C456.242 131.494 473.869 112.956 491.16 94.0208L540.842 39.9261C551.421 28.4015 569.29 6.76633 581.494 0.0999357ZM583.75 160.941C569.311 178.08 545.865 281.338 534.242 309.543C532.98 312.605 529.983 323.866 529.083 327.535C536.628 318.584 542.602 311.696 550.72 303.477C579.305 276.201 587.522 272.691 620.162 256.842C615.217 242.287 595.525 166.181 587.476 162.165C586.401 161.63 585.278 161.334 584.153 161.048L583.75 160.941Z" fill="#EFAB53"/>
<path fill-rule="evenodd" clip-rule="evenodd" d="M581.494 0.0999357C595.389 -1.56386 609.513 17.9434 619.941 29.0911L664.499 77.4095L706.168 122.64C713.488 130.604 734.853 152.158 736.901 162.017C741.038 181.947 739.288 218.663 739.028 239.954C733.553 236.661 726.349 234.244 720.475 231.992L720.36 170.977C705.154 149.123 676.427 122.395 658.621 102.88C634.874 76.8568 609.993 48.1548 585.187 24.1917C581.784 26.8962 577.133 31.8543 574.069 35.2249C535.768 77.3641 496.784 118.441 458.57 160.701C455.441 164.161 452.692 167.792 450.332 172.191C449.122 208.182 449.982 252.972 449.989 289.505C449.997 334.453 449.158 383.998 450.226 428.611C459.335 429.039 468.308 428.747 477.412 428.535C480.018 421.366 482.136 414.197 484.437 406.864C508.719 329.476 531.631 251.378 556.102 174.093C560.155 161.293 565.134 144.965 575.82 139.954C589.39 133.592 601.984 140.484 608.677 156.968C613.46 168.558 616.995 181.311 620.734 193.602C626.572 212.794 632.926 232.124 638.157 251.596C657.94 247.994 673.889 245.387 693.967 248.788C705.007 250.807 729.026 255.151 737.053 265.704C740.665 279.846 740.627 426.939 736.819 439.592C735.41 444.276 731.194 448.531 727.7 450.306C719.433 454.503 694.26 454.485 685.904 449.675C681.236 446.989 678.604 442.064 676.098 436.454C669.223 421.062 664.706 402.333 659.617 385.751L633.483 301.044C639.729 298.614 645.103 297.642 651.507 296.294C661.814 322.586 671.274 361.881 680.75 389.539C685.314 402.863 688.062 415.564 694.111 428.671C702.907 429.016 711.501 428.697 720.286 428.436C721.104 380.326 720.439 329.226 720.358 280.918C719.671 280.502 718.809 279.975 718.08 279.668C649.795 250.921 570.653 295.482 526.568 365.186C519.349 376.602 514.825 387.381 509.077 399.284C502.081 413.769 495.674 443.739 483.739 450.104C472.995 454.553 453.548 454.456 443.113 450.377C434.764 447.115 431.058 433.375 431.023 423.314C430.982 411.495 431.183 398.975 431.187 386.893L431.132 305.945C431.094 262.209 430.85 218.431 431.292 174.706C431.362 167.745 435.227 155.626 439.313 150.935C456.242 131.494 473.869 112.956 491.16 94.0208L540.842 39.9261C551.421 28.4015 569.29 6.76633 581.494 0.0999357ZM583.75 160.941C569.311 178.08 545.865 281.338 534.242 309.543C532.98 312.605 529.983 323.866 529.083 327.535C536.628 318.584 542.602 311.696 550.72 303.477C579.305 276.201 587.522 272.691 620.162 256.842C615.217 242.287 595.525 166.181 587.476 162.165C586.401 161.63 585.278 161.334 584.153 161.048L583.75 160.941Z" fill="url(#paint0_linear_2293_157)" fill-opacity="0.85"/>
</g>
<defs>
<filter id="filter0_din_2293_157" x="3.69117" y="-3.14282" width="1165.71" height="795.065" filterUnits="userSpaceOnUse" color-interpolation-filters="sRGB">
<feFlood flood-opacity="0" result="BackgroundImageFix"/>
<feColorMatrix in="SourceAlpha" type="matrix" values="0 0 0 0 0 0 0 0 0 0 0 0 0 0 0 0 0 0 127 0" result="hardAlpha"/>
<feOffset dx="3.14282" dy="3.14282"/>
<feGaussianBlur stdDeviation="1.57141"/>
<feComposite in2="hardAlpha" operator="out"/>
<feColorMatrix type="matrix" values="0 0 0 0 0 0 0 0 0 0 0 0 0 0 0 0 0 0 0.25 0"/>
<feBlend mode="normal" in2="BackgroundImageFix" result="effect1_dropShadow_2293_157"/>
<feBlend mode="normal" in="SourceGraphic" in2="BackgroundImageFix" result="shape"/>
<feColorMatrix in="SourceAlpha" type="matrix" values="0 0 0 0 0 0 0 0 0 0 0 0 0 0 0 0 0 0 127 0" result="hardAlpha"/>
<feOffset dx="-3.14282" dy="-3.14282"/>
<feGaussianBlur stdDeviation="1.57141"/>
<feComposite in2="hardAlpha" operator="arithmetic" k2="-1" k3="1"/>
<feColorMatrix type="matrix" values="0 0 0 0 0.733333 0 0 0 0 0.6 0 0 0 0 0.435294 0 0 0 0.2 0"/>
<feBlend mode="normal" in2="shape" result="effect2_innerShadow_2293_157"/>
<feTurbulence type="fractalNoise" baseFrequency="1.2727440595626831 1.2727440595626831" stitchTiles="stitch" numOctaves="3" result="noise" seed="3224" />
<feColorMatrix in="noise" type="luminanceToAlpha" result="alphaNoise" />
<feComponentTransfer in="alphaNoise" result="coloredNoise1">
<feFuncA type="discrete" tableValues="1 1 1 1 1 1 1 1 1 1 1 1 1 1 1 1 1 1 1 1 1 1 1 1 1 1 1 1 1 1 1 1 1 1 1 1 1 1 1 1 1 1 1 1 1 1 1 1 1 1 1 0 0 0 0 0 0 0 0 0 0 0 0 0 0 0 0 0 0 0 0 0 0 0 0 0 0 0 0 0 0 0 0 0 0 0 0 0 0 0 0 0 0 0 0 0 0 0 0 0 "/>
</feComponentTransfer>
<feComposite operator="in" in2="effect2_innerShadow_2293_157" in="coloredNoise1" result="noise1Clipped" />
<feFlood flood-color="rgba(0, 0, 0, 0.1)" result="color1Flood" />
<feComposite operator="in" in2="noise1Clipped" in="color1Flood" result="color1" />
<feMerge result="effect3_noise_2293_157">
<feMergeNode in="effect2_innerShadow_2293_157" />
<feMergeNode in="color1" />
</feMerge>
<feBlend mode="normal" in="effect3_noise_2293_157" in2="effect1_dropShadow_2293_157" result="effect3_noise_2293_157"/>
</filter>
<linearGradient id="paint0_linear_2293_157" x1="728.313" y1="65.6675" x2="353.572" y2="354.564" gradientUnits="userSpaceOnUse">
<stop stop-color="#F7D2AB"/>
<stop offset="0.5" stop-color="#E0BA87"/>
<stop offset="1" stop-color="#A98D62"/>
</linearGradient>
</defs>
</svg>
