<svg xmlns="http://www.w3.org/2000/svg" width="34.641" height="60.000" viewBox="0 0 34.641 60.000">
  <g opacity="0.03" stroke="#001b51" stroke-width="0.7" stroke-linejoin="round" stroke-linecap="round" fill="none">
    
    <g transform="translate(34.641, 0) rotate(90)">
      <path d="M 20.000,0.000 L 10.000,17.321 L -10.000,17.321 L -20.000,0.000 L -10.000,-17.321 L 10.000,-17.321 Z"/>
      <path d="M 0.000,0.000 L 10.000,17.321"/>
      <path d="M 0.000,0.000 L -20.000,0.000"/>
      <path d="M 0.000,0.000 L 10.000,-17.321"/>
      <path d="M 80.000,0.000 L 70.000,17.321 L 50.000,17.321 L 40.000,0.000 L 50.000,-17.321 L 70.000,-17.321 Z"/>
      <path d="M 60.000,0.000 L 70.000,17.321"/>
      <path d="M 60.000,0.000 L 40.000,0.000"/>
      <path d="M 60.000,0.000 L 70.000,-17.321"/>
      <path d="M 20.000,34.641 L 10.000,51.962 L -10.000,51.962 L -20.000,34.641 L -10.000,17.321 L 10.000,17.321 Z"/>
      <path d="M 0.000,34.641 L 10.000,51.962"/>
      <path d="M 0.000,34.641 L -20.000,34.641"/>
      <path d="M 0.000,34.641 L 10.000,17.321"/>
      <path d="M 80.000,34.641 L 70.000,51.962 L 50.000,51.962 L 40.000,34.641 L 50.000,17.321 L 70.000,17.321 Z"/>
      <path d="M 60.000,34.641 L 70.000,51.962"/>
      <path d="M 60.000,34.641 L 40.000,34.641"/>
      <path d="M 60.000,34.641 L 70.000,17.321"/>
      <path d="M 50.000,17.321 L 40.000,34.641 L 20.000,34.641 L 10.000,17.321 L 20.000,0.000 L 40.000,0.000 Z"/>
      <path d="M 30.000,17.321 L 40.000,34.641"/>
      <path d="M 30.000,17.321 L 10.000,17.321"/>
      <path d="M 30.000,17.321 L 40.000,0.000"/>
    </g>
  </g>
</svg>
